<svg width="40" height="40" xmlns="http://www.w3.org/2000/svg">

    <g>
        <title>Layer 1</title>
        <g stroke="null" id="surface1">
            <path stroke="null" id="svg_1" fill-rule="nonzero" fill="rgb(100%,49.019608%,59.215686%)"
                  d="m20.34114,3.34375c-6.21093,0 -11.25,4.84866 -11.25,10.83333l0,3.09577c0,4.69821 3.10547,8.69676 7.44922,10.19762c0.78125,0.27083 1.26172,1.03068 1.13281,1.82436l-0.60546,3.68258c-0.31641,1.93346 1.23437,3.67883 3.26562,3.67883c2.03125,0 3.58203,-1.74537 3.26563,-3.67883l-0.60547,-3.67882c-0.12891,-0.79369 0.35156,-1.55353 1.13672,-1.82436c4.34765,-1.49711 7.46093,-5.49942 7.46093,-10.20139l0,-3.09577c0,-5.98467 -5.03515,-10.83333 -11.25,-10.83333zm0,0"/>
            <path stroke="null" id="svg_2" fill-rule="nonzero" fill="rgb(87.45098%,92.941176%,100%)"
                  d="m20.34114,6.32292c-4.49609,0 -8.15625,3.52459 -8.15625,7.85417l0,3.09577c0,4.32957 3.66016,7.85417 8.15625,7.85417c4.5,0 8.15625,-3.5246 8.15625,-7.85417l0,-3.09577c0,-4.32958 -3.65625,-7.85417 -8.15625,-7.85417zm0,0"/>
            <path stroke="null" id="svg_3" fill-rule="nonzero" fill="rgb(0%,0%,0%)"
                  d="m26.10677,22.14786c-0.1875,0 -0.36719,0.07147 -0.5,0.19936c-0.12891,0.12414 -0.20313,0.30093 -0.20313,0.47772c0,0.1768 0.07422,0.35359 0.20313,0.47773c0.13281,0.12789 0.3125,0.19936 0.5,0.19936c0.18359,0 0.36328,-0.07147 0.49609,-0.19936c0.13281,-0.12414 0.20703,-0.30093 0.20703,-0.47773c0,-0.17679 -0.07422,-0.35358 -0.20703,-0.47772c-0.13281,-0.12789 -0.3125,-0.19936 -0.49609,-0.19936zm0,0"/>
            <path stroke="null" id="svg_4" fill-rule="nonzero" fill="rgb(0%,0%,0%)"
                  d="m20.34114,5.64583c-4.88281,0 -8.85937,3.82552 -8.85937,8.53126l0,3.09577c0,4.70197 3.97656,8.53125 8.85937,8.53125c1.17969,0 2.32813,-0.22192 3.40625,-0.65827c0.35938,-0.14294 0.52735,-0.5379 0.37891,-0.88397c-0.14844,-0.34606 -0.5625,-0.50781 -0.91797,-0.36487c-0.91016,0.36863 -1.875,0.55294 -2.86719,0.55294c-1.92578,0 -3.67968,-0.70717 -5.0039,-1.86574l4.70703,-4.5327c0.27344,-0.2633 0.27344,-0.69213 0,-0.9592c-0.27344,-0.26331 -0.71875,-0.26331 -0.9961,0l-4.66015,4.49132c-0.64453,-0.82002 -1.10938,-1.77922 -1.33594,-2.82118l11.14063,-10.728c0.87109,0.50781 1.625,1.18113 2.21484,1.97483l-4.68359,4.51012c-0.27344,0.26331 -0.27344,0.69213 0,0.95544c0.13671,0.13166 0.3164,0.19936 0.49609,0.19936c0.18359,0 0.36328,-0.06771 0.5,-0.19936l4.41406,-4.25058c0.42578,0.89901 0.66016,1.8996 0.66016,2.95284l0,3.09577c0,0.95544 -0.19141,1.88455 -0.57422,2.761c-0.14844,0.34606 0.01953,0.74103 0.37891,0.88773c0.35937,0.14294 0.76953,-0.01881 0.91796,-0.36487c0.45313,-1.04196 0.6836,-2.14786 0.6836,-3.28386l0,-3.09577c0,-4.70573 -3.97266,-8.53126 -8.85938,-8.53126zm-7.45312,11.35619l0,-2.82494c0,-3.95718 3.34375,-7.17709 7.45312,-7.17709c0.87891,0 1.71875,0.1467 2.50391,0.41753l-9.95703,9.5845zm0,0"/>
            <path stroke="null" id="svg_5" fill-rule="nonzero" fill="rgb(0%,0%,0%)"
                  d="m32.29427,14.17709c0,-6.34578 -5.35938,-11.51042 -11.95313,-11.51042c-6.58984,0 -11.95312,5.16464 -11.95312,11.51042l0,3.09577c0,4.84491 3.17969,9.19705 7.91406,10.83333c0.46875,0.16175 0.75391,0.61689 0.67578,1.08333l-0.60156,3.68258c-0.18359,1.11718 0.14844,2.24942 0.91016,3.11082c0.76171,0.85763 1.875,1.3504 3.04687,1.3504c1.17188,0 2.28516,-0.49277 3.04688,-1.3504c0.76171,-0.8614 1.09375,-1.99364 0.91015,-3.11082l-0.60156,-3.67882c-0.07422,-0.46267 0.21094,-0.91783 0.67969,-1.07958c4.74218,-1.63252 7.92578,-5.98843 7.92578,-10.84085l0,-3.09577zm-1.40625,3.09577c0,4.28067 -2.8086,8.125 -6.9961,9.56568c-1.10156,0.37992 -1.77343,1.4595 -1.59375,2.5654l0.60547,3.67882c0.11719,0.72598 -0.09765,1.45949 -0.59375,2.01996c-0.49218,0.55672 -1.21484,0.87645 -1.97656,0.87645c-0.76172,0 -1.48437,-0.31973 -1.97656,-0.87645c-0.4961,-0.56047 -0.71094,-1.29398 -0.59375,-2.01996l0.60547,-3.68258c0.17968,-1.10591 -0.48828,-2.18547 -1.58985,-2.56539c-4.17578,-1.44444 -6.98437,-5.28878 -6.98437,-9.56192l0,-3.09577c0,-5.60099 4.73437,-10.15626 10.54687,-10.15626c5.81641,0 10.54688,4.55527 10.54688,10.15626l0,3.09577zm0,0"/>
            <path stroke="null" id="svg_6" fill-rule="nonzero" fill="rgb(0%,0%,0%)"
                  d="m20.33333,32.76303c-0.18359,0 -0.36719,0.07147 -0.49609,0.19936c-0.13282,0.12413 -0.20703,0.30093 -0.20703,0.47772c0,0.1768 0.07421,0.35359 0.20703,0.47773c0.1289,0.12789 0.3125,0.19936 0.49609,0.19936c0.18359,0 0.36719,-0.07147 0.49609,-0.19936c0.13282,-0.12414 0.20704,-0.30093 0.20704,-0.47773c0,-0.17679 -0.07422,-0.35359 -0.20704,-0.47772c-0.1289,-0.12789 -0.3125,-0.19936 -0.49609,-0.19936zm0,0"/>
            <path stroke="null" id="svg_7" fill-rule="nonzero" fill="rgb(0%,0%,0%)"
                  d="m35.1263,25.53327c-0.32422,0 -0.58984,-0.25578 -0.58984,-0.56799c0,-0.3724 -0.31641,-0.67708 -0.70313,-0.67708c-0.38672,0 -0.70312,0.30468 -0.70312,0.67708c0,0.31221 -0.26563,0.56799 -0.58985,0.56799c-0.38672,0 -0.70312,0.30469 -0.70312,0.67709c0,0.37615 0.3164,0.67708 0.70312,0.67708c0.32422,0 0.58985,0.25579 0.58985,0.568c0,0.37615 0.3164,0.67708 0.70312,0.67708c0.38672,0 0.70313,-0.30093 0.70313,-0.67708c0,-0.31221 0.26562,-0.568 0.58984,-0.568c0.38672,0 0.70312,-0.30093 0.70312,-0.67708c0,-0.3724 -0.3164,-0.67709 -0.70312,-0.67709zm0,0"/>
            <path stroke="null" id="svg_8" fill-rule="nonzero" fill="rgb(0%,0%,0%)"
                  d="m8.82942,4.58883c0,-0.37239 -0.3164,-0.67708 -0.70312,-0.67708c-0.32422,0 -0.58984,-0.25579 -0.58984,-0.56799c0,-0.3724 -0.31641,-0.67709 -0.70313,-0.67709c-0.38672,0 -0.70312,0.30469 -0.70312,0.67709c0,0.3122 -0.26563,0.56799 -0.58985,0.56799c-0.38672,0 -0.70312,0.30469 -0.70312,0.67708c0,0.3724 0.3164,0.67709 0.70312,0.67709c0.32422,0 0.58985,0.25578 0.58985,0.56799c0,0.3724 0.3164,0.67709 0.70312,0.67709c0.38672,0 0.70313,-0.30469 0.70313,-0.67709c0,-0.31221 0.26562,-0.56799 0.58984,-0.56799c0.38672,0 0.70312,-0.30469 0.70312,-0.67709zm0,0"/>
        </g>
    </g>
</svg>