<?xml version="1.0" encoding="UTF-8"?>
<svg xmlns="http://www.w3.org/2000/svg" width="16pt" height="16pt" viewBox="0 0 16 16" version="1.1">
    <g id="surface1">
        <path style=" stroke:none;fill-rule:nonzero;fill:rgb(100%,49.019608%,59.215686%);fill-opacity:1;"
              d="M 7.910156 1.21875 C 5.402344 1.21875 3.371094 3.175781 3.371094 5.589844 L 3.371094 6.835938 C 3.371094 8.734375 4.625 10.34375 6.375 10.949219 C 6.691406 11.058594 6.886719 11.367188 6.832031 11.6875 L 6.589844 13.171875 C 6.460938 13.953125 7.085938 14.65625 7.90625 14.65625 C 8.726562 14.65625 9.351562 13.953125 9.222656 13.171875 L 8.980469 11.6875 C 8.925781 11.367188 9.121094 11.0625 9.4375 10.953125 C 11.191406 10.347656 12.449219 8.734375 12.449219 6.835938 L 12.449219 5.589844 C 12.449219 3.175781 10.417969 1.21875 7.910156 1.21875 Z M 7.910156 1.21875 "/>
        <path style=" stroke:none;fill-rule:nonzero;fill:rgb(87.45098%,92.941176%,100%);fill-opacity:1;"
              d="M 7.910156 2.417969 C 6.09375 2.417969 4.617188 3.839844 4.617188 5.589844 L 4.617188 6.835938 C 4.617188 8.582031 6.09375 10.003906 7.910156 10.003906 C 9.726562 10.003906 11.199219 8.582031 11.199219 6.835938 L 11.199219 5.589844 C 11.199219 3.839844 9.726562 2.417969 7.910156 2.417969 Z M 7.910156 2.417969 "/>
        <path style=" stroke:none;fill-rule:nonzero;fill:rgb(0%,0%,0%);fill-opacity:1;"
              d="M 10.234375 8.804688 C 10.160156 8.804688 10.085938 8.832031 10.035156 8.882812 C 9.980469 8.933594 9.953125 9.003906 9.953125 9.078125 C 9.953125 9.148438 9.980469 9.21875 10.035156 9.269531 C 10.085938 9.320312 10.160156 9.351562 10.234375 9.351562 C 10.308594 9.351562 10.382812 9.320312 10.433594 9.269531 C 10.488281 9.21875 10.519531 9.148438 10.519531 9.078125 C 10.519531 9.003906 10.488281 8.933594 10.433594 8.882812 C 10.382812 8.832031 10.308594 8.804688 10.234375 8.804688 Z M 10.234375 8.804688 "/>
        <path style=" stroke:none;fill-rule:nonzero;fill:rgb(0%,0%,0%);fill-opacity:1;"
              d="M 7.910156 2.148438 C 5.941406 2.148438 4.335938 3.691406 4.335938 5.589844 L 4.335938 6.835938 C 4.335938 8.734375 5.941406 10.277344 7.910156 10.277344 C 8.386719 10.277344 8.847656 10.1875 9.285156 10.011719 C 9.429688 9.957031 9.496094 9.796875 9.4375 9.65625 C 9.375 9.515625 9.210938 9.453125 9.066406 9.507812 C 8.699219 9.660156 8.308594 9.734375 7.910156 9.734375 C 7.132812 9.734375 6.425781 9.449219 5.890625 8.980469 L 7.789062 7.152344 C 7.898438 7.046875 7.898438 6.871094 7.789062 6.765625 C 7.679688 6.65625 7.5 6.65625 7.386719 6.765625 L 5.507812 8.578125 C 5.246094 8.246094 5.058594 7.859375 4.96875 7.4375 L 9.464844 3.109375 C 9.816406 3.316406 10.117188 3.585938 10.355469 3.90625 L 8.46875 5.726562 C 8.355469 5.832031 8.355469 6.003906 8.46875 6.113281 C 8.523438 6.164062 8.59375 6.191406 8.667969 6.191406 C 8.742188 6.191406 8.8125 6.164062 8.867188 6.113281 L 10.648438 4.398438 C 10.820312 4.757812 10.917969 5.164062 10.917969 5.589844 L 10.917969 6.835938 C 10.917969 7.222656 10.839844 7.597656 10.683594 7.949219 C 10.625 8.089844 10.691406 8.25 10.835938 8.308594 C 10.980469 8.367188 11.148438 8.300781 11.207031 8.160156 C 11.390625 7.742188 11.484375 7.296875 11.484375 6.835938 L 11.484375 5.589844 C 11.484375 3.691406 9.878906 2.148438 7.910156 2.148438 Z M 4.902344 6.726562 L 4.902344 5.589844 C 4.902344 3.992188 6.25 2.691406 7.910156 2.691406 C 8.265625 2.691406 8.601562 2.753906 8.917969 2.859375 Z M 4.902344 6.726562 "/>
        <path style=" stroke:none;fill-rule:nonzero;fill:rgb(0%,0%,0%);fill-opacity:1;"
              d="M 12.730469 5.589844 C 12.730469 3.027344 10.570312 0.945312 7.910156 0.945312 C 5.25 0.945312 3.085938 3.027344 3.085938 5.589844 L 3.085938 6.835938 C 3.085938 8.792969 4.371094 10.546875 6.28125 11.207031 C 6.46875 11.273438 6.585938 11.457031 6.550781 11.644531 L 6.308594 13.128906 C 6.234375 13.582031 6.371094 14.039062 6.675781 14.386719 C 6.984375 14.730469 7.433594 14.929688 7.90625 14.929688 C 8.378906 14.929688 8.828125 14.730469 9.136719 14.386719 C 9.441406 14.039062 9.578125 13.582031 9.503906 13.128906 L 9.261719 11.644531 C 9.230469 11.460938 9.34375 11.277344 9.535156 11.210938 C 11.445312 10.550781 12.730469 8.792969 12.730469 6.835938 Z M 12.164062 6.835938 C 12.164062 8.5625 11.03125 10.113281 9.34375 10.695312 C 8.898438 10.847656 8.625 11.285156 8.699219 11.730469 L 8.941406 13.214844 C 8.992188 13.507812 8.902344 13.804688 8.703125 14.03125 C 8.503906 14.253906 8.214844 14.382812 7.90625 14.382812 C 7.597656 14.382812 7.308594 14.253906 7.109375 14.03125 C 6.910156 13.804688 6.820312 13.507812 6.871094 13.214844 L 7.113281 11.730469 C 7.1875 11.285156 6.917969 10.847656 6.472656 10.695312 C 4.789062 10.113281 3.65625 8.5625 3.65625 6.835938 L 3.65625 5.589844 C 3.65625 3.328125 5.566406 1.492188 7.910156 1.492188 C 10.257812 1.492188 12.164062 3.328125 12.164062 5.589844 Z M 12.164062 6.835938 "/>
        <path style=" stroke:none;fill-rule:nonzero;fill:rgb(0%,0%,0%);fill-opacity:1;"
              d="M 7.90625 13.085938 C 7.832031 13.085938 7.757812 13.113281 7.707031 13.167969 C 7.652344 13.214844 7.621094 13.289062 7.621094 13.359375 C 7.621094 13.429688 7.652344 13.503906 7.707031 13.550781 C 7.757812 13.605469 7.832031 13.632812 7.90625 13.632812 C 7.980469 13.632812 8.054688 13.605469 8.105469 13.550781 C 8.160156 13.503906 8.191406 13.429688 8.191406 13.359375 C 8.191406 13.289062 8.160156 13.214844 8.105469 13.167969 C 8.054688 13.113281 7.980469 13.085938 7.90625 13.085938 Z M 7.90625 13.085938 "/>
        <path style=" stroke:none;fill-rule:nonzero;fill:rgb(0%,0%,0%);fill-opacity:1;"
              d="M 13.875 10.167969 C 13.742188 10.167969 13.636719 10.066406 13.636719 9.941406 C 13.636719 9.789062 13.507812 9.667969 13.351562 9.667969 C 13.195312 9.667969 13.070312 9.789062 13.070312 9.941406 C 13.070312 10.066406 12.960938 10.167969 12.832031 10.167969 C 12.675781 10.167969 12.546875 10.292969 12.546875 10.441406 C 12.546875 10.59375 12.675781 10.714844 12.832031 10.714844 C 12.960938 10.714844 13.070312 10.820312 13.070312 10.945312 C 13.070312 11.097656 13.195312 11.21875 13.351562 11.21875 C 13.507812 11.21875 13.636719 11.097656 13.636719 10.945312 C 13.636719 10.820312 13.742188 10.714844 13.875 10.714844 C 14.03125 10.714844 14.15625 10.59375 14.15625 10.441406 C 14.15625 10.292969 14.03125 10.167969 13.875 10.167969 Z M 13.875 10.167969 "/>
        <path style=" stroke:none;fill-rule:nonzero;fill:rgb(0%,0%,0%);fill-opacity:1;"
              d="M 3.265625 1.71875 C 3.265625 1.570312 3.136719 1.445312 2.980469 1.445312 C 2.851562 1.445312 2.742188 1.34375 2.742188 1.21875 C 2.742188 1.066406 2.617188 0.945312 2.460938 0.945312 C 2.304688 0.945312 2.175781 1.066406 2.175781 1.21875 C 2.175781 1.34375 2.070312 1.445312 1.9375 1.445312 C 1.78125 1.445312 1.65625 1.570312 1.65625 1.71875 C 1.65625 1.871094 1.78125 1.992188 1.9375 1.992188 C 2.070312 1.992188 2.175781 2.097656 2.175781 2.222656 C 2.175781 2.371094 2.304688 2.496094 2.460938 2.496094 C 2.617188 2.496094 2.742188 2.371094 2.742188 2.222656 C 2.742188 2.097656 2.851562 1.992188 2.980469 1.992188 C 3.136719 1.992188 3.265625 1.871094 3.265625 1.71875 Z M 3.265625 1.71875 "/>
        <path style=" stroke:none;fill-rule:nonzero;fill:rgb(100%,57.254902%,62.352941%);fill-opacity:1;"
              d="M 15.851562 10.6875 C 15.851562 13.503906 13.566406 15.789062 10.75 15.789062 C 7.933594 15.789062 5.648438 13.503906 5.648438 10.6875 C 5.648438 7.871094 7.933594 5.585938 10.75 5.585938 C 13.566406 5.585938 15.851562 7.871094 15.851562 10.6875 Z M 15.851562 10.6875 "/>
        <path style=" stroke:none;fill-rule:nonzero;fill:rgb(100%,45.098039%,49.019608%);fill-opacity:1;"
              d="M 10.214844 8.414062 C 11.265625 7.605469 11.792969 6.453125 12.03125 5.746094 C 11.621094 5.640625 11.191406 5.585938 10.75 5.585938 C 7.933594 5.585938 5.648438 7.871094 5.648438 10.6875 C 5.648438 13.503906 7.933594 15.789062 10.75 15.789062 C 10.960938 15.789062 11.167969 15.777344 11.375 15.753906 C 9.15625 13.890625 8.824219 11.980469 8.96875 10.644531 C 9.066406 9.761719 9.515625 8.957031 10.214844 8.414062 Z M 10.214844 8.414062 "/>
        <path style=" stroke:none;fill-rule:nonzero;fill:rgb(100%,100%,100%);fill-opacity:1;"
              d="M 12.304688 10.417969 L 13.488281 9.234375 C 13.839844 8.882812 13.839844 8.304688 13.488281 7.949219 C 13.132812 7.597656 12.554688 7.597656 12.203125 7.949219 L 11.019531 9.132812 C 10.871094 9.28125 10.628906 9.28125 10.480469 9.132812 L 9.296875 7.949219 C 8.945312 7.597656 8.367188 7.597656 8.011719 7.949219 C 7.660156 8.304688 7.660156 8.882812 8.011719 9.234375 L 9.195312 10.417969 C 9.34375 10.566406 9.34375 10.808594 9.195312 10.957031 L 8.011719 12.140625 C 7.660156 12.492188 7.660156 13.070312 8.011719 13.425781 C 8.367188 13.777344 8.945312 13.777344 9.296875 13.425781 L 10.480469 12.242188 C 10.628906 12.09375 10.871094 12.09375 11.019531 12.242188 L 12.203125 13.425781 C 12.554688 13.777344 13.132812 13.777344 13.488281 13.425781 C 13.839844 13.070312 13.839844 12.492188 13.488281 12.140625 L 12.304688 10.957031 C 12.15625 10.808594 12.15625 10.566406 12.304688 10.417969 Z M 12.304688 10.417969 "/>
        <path style=" stroke:none;fill-rule:nonzero;fill:rgb(74.117647%,98.039216%,100%);fill-opacity:1;"
              d="M 9.972656 8.625 L 9.296875 7.949219 C 8.945312 7.597656 8.367188 7.597656 8.011719 7.949219 C 7.660156 8.304688 7.660156 8.882812 8.011719 9.234375 L 9.035156 10.257812 C 9.179688 9.632812 9.503906 9.0625 9.972656 8.625 Z M 9.972656 8.625 "/>
        <path style=" stroke:none;fill-rule:nonzero;fill:rgb(80%,97.254902%,100%);fill-opacity:1;"
              d="M 9.296875 13.425781 L 9.414062 13.308594 C 9.066406 12.550781 8.945312 11.839844 8.941406 11.210938 L 8.011719 12.140625 C 7.660156 12.492188 7.660156 13.070312 8.011719 13.425781 C 8.367188 13.777344 8.945312 13.777344 9.296875 13.425781 Z M 9.296875 13.425781 "/>
        <path style=" stroke:none;fill-rule:nonzero;fill:rgb(0%,0%,0%);fill-opacity:1;"
              d="M 10.75 15.945312 C 9.347656 15.945312 8.027344 15.398438 7.03125 14.40625 C 6.039062 13.410156 5.492188 12.089844 5.492188 10.6875 C 5.492188 9.285156 6.039062 7.964844 7.03125 6.96875 C 8.027344 5.976562 9.347656 5.429688 10.75 5.429688 C 11.6875 5.429688 12.609375 5.679688 13.410156 6.152344 C 14.191406 6.613281 14.84375 7.269531 15.300781 8.050781 C 15.339844 8.125 15.316406 8.21875 15.242188 8.261719 C 15.167969 8.304688 15.074219 8.277344 15.03125 8.207031 C 14.605469 7.46875 13.988281 6.851562 13.253906 6.417969 C 12.5 5.972656 11.632812 5.738281 10.75 5.738281 C 9.429688 5.738281 8.183594 6.253906 7.25 7.1875 C 6.316406 8.121094 5.800781 9.367188 5.800781 10.6875 C 5.800781 12.007812 6.316406 13.253906 7.25 14.1875 C 8.183594 15.121094 9.429688 15.636719 10.75 15.636719 C 12.070312 15.636719 13.316406 15.121094 14.25 14.1875 C 15.183594 13.253906 15.699219 12.007812 15.699219 10.6875 C 15.699219 10.039062 15.574219 9.40625 15.332031 8.8125 C 15.296875 8.730469 15.335938 8.640625 15.414062 8.609375 C 15.492188 8.578125 15.582031 8.617188 15.617188 8.695312 C 15.875 9.328125 16.007812 9.996094 16.007812 10.6875 C 16.007812 12.089844 15.460938 13.410156 14.46875 14.40625 C 13.472656 15.398438 12.152344 15.945312 10.75 15.945312 Z M 10.75 15.945312 "/>
        <path style=" stroke:none;fill-rule:nonzero;fill:rgb(0%,0%,0%);fill-opacity:1;"
              d="M 12.09375 13.535156 L 10.910156 12.351562 C 10.820312 12.261719 10.679688 12.261719 10.589844 12.351562 L 9.40625 13.535156 C 8.992188 13.949219 8.320312 13.949219 7.902344 13.535156 C 7.488281 13.117188 7.488281 12.445312 7.902344 12.03125 C 7.964844 11.96875 8.0625 11.96875 8.121094 12.03125 C 8.183594 12.089844 8.183594 12.1875 8.121094 12.246094 C 7.980469 12.390625 7.726562 12.941406 8.121094 13.316406 C 8.515625 13.691406 9.046875 13.457031 9.1875 13.316406 L 10.371094 12.132812 C 10.582031 11.925781 10.917969 11.925781 11.128906 12.132812 L 12.308594 13.316406 C 12.453125 13.457031 12.972656 13.742188 13.378906 13.316406 C 13.835938 12.835938 13.519531 12.390625 13.378906 12.246094 L 12.195312 11.066406 C 11.988281 10.855469 11.988281 10.519531 12.195312 10.308594 L 13.378906 9.125 C 13.519531 8.984375 13.773438 8.453125 13.378906 8.058594 C 12.910156 7.59375 12.453125 7.917969 12.308594 8.058594 L 11.128906 9.242188 C 10.917969 9.449219 10.582031 9.449219 10.371094 9.242188 L 9.1875 8.058594 C 9.046875 7.917969 8.566406 7.65625 8.121094 8.058594 C 7.675781 8.460938 7.980469 8.984375 8.121094 9.125 L 9.304688 10.308594 C 9.511719 10.519531 9.511719 10.855469 9.304688 11.066406 L 8.578125 11.792969 C 8.515625 11.855469 8.417969 11.855469 8.359375 11.792969 C 8.296875 11.734375 8.296875 11.636719 8.359375 11.574219 L 9.085938 10.847656 C 9.175781 10.757812 9.175781 10.617188 9.085938 10.527344 L 7.902344 9.34375 C 7.488281 8.929688 7.488281 8.257812 7.902344 7.839844 C 8.320312 7.425781 8.992188 7.425781 9.40625 7.839844 L 10.589844 9.023438 C 10.679688 9.113281 10.820312 9.113281 10.910156 9.023438 L 12.09375 7.839844 C 12.507812 7.425781 13.179688 7.425781 13.597656 7.839844 C 14.011719 8.257812 14.011719 8.929688 13.597656 9.34375 L 12.414062 10.527344 C 12.324219 10.617188 12.324219 10.757812 12.414062 10.847656 L 13.597656 12.03125 C 14.011719 12.445312 14.011719 13.117188 13.597656 13.535156 C 13.390625 13.742188 12.710938 14.148438 12.09375 13.535156 Z M 12.09375 13.535156 "/>
    </g>
</svg>
