<?xml version="1.0" encoding="UTF-8"?>
<svg xmlns="http://www.w3.org/2000/svg" width="16pt" height="16pt" viewBox="0 0 16 16" version="1.1">
    <g id="surface1">
        <path style=" stroke:none;fill-rule:nonzero;fill:rgb(100%,49.019608%,59.215686%);fill-opacity:1;"
              d="M 7.910156 1.21875 C 5.402344 1.21875 3.371094 3.175781 3.371094 5.589844 L 3.371094 6.835938 C 3.371094 8.734375 4.625 10.34375 6.375 10.949219 C 6.691406 11.058594 6.886719 11.367188 6.832031 11.6875 L 6.589844 13.171875 C 6.460938 13.953125 7.085938 14.65625 7.90625 14.65625 C 8.726562 14.65625 9.351562 13.953125 9.222656 13.171875 L 8.980469 11.6875 C 8.925781 11.367188 9.121094 11.0625 9.4375 10.953125 C 11.191406 10.347656 12.449219 8.734375 12.449219 6.835938 L 12.449219 5.589844 C 12.449219 3.175781 10.417969 1.21875 7.910156 1.21875 Z M 7.910156 1.21875 "/>
        <path style=" stroke:none;fill-rule:nonzero;fill:rgb(87.45098%,92.941176%,100%);fill-opacity:1;"
              d="M 7.910156 2.417969 C 6.09375 2.417969 4.617188 3.839844 4.617188 5.589844 L 4.617188 6.835938 C 4.617188 8.582031 6.09375 10.003906 7.910156 10.003906 C 9.726562 10.003906 11.199219 8.582031 11.199219 6.835938 L 11.199219 5.589844 C 11.199219 3.839844 9.726562 2.417969 7.910156 2.417969 Z M 7.910156 2.417969 "/>
        <path style=" stroke:none;fill-rule:nonzero;fill:rgb(0%,0%,0%);fill-opacity:1;"
              d="M 10.234375 8.804688 C 10.160156 8.804688 10.085938 8.832031 10.035156 8.882812 C 9.980469 8.933594 9.953125 9.003906 9.953125 9.078125 C 9.953125 9.148438 9.980469 9.21875 10.035156 9.269531 C 10.085938 9.320312 10.160156 9.351562 10.234375 9.351562 C 10.308594 9.351562 10.382812 9.320312 10.433594 9.269531 C 10.488281 9.21875 10.519531 9.148438 10.519531 9.078125 C 10.519531 9.003906 10.488281 8.933594 10.433594 8.882812 C 10.382812 8.832031 10.308594 8.804688 10.234375 8.804688 Z M 10.234375 8.804688 "/>
        <path style=" stroke:none;fill-rule:nonzero;fill:rgb(0%,0%,0%);fill-opacity:1;"
              d="M 7.910156 2.148438 C 5.941406 2.148438 4.335938 3.691406 4.335938 5.589844 L 4.335938 6.835938 C 4.335938 8.734375 5.941406 10.277344 7.910156 10.277344 C 8.386719 10.277344 8.847656 10.1875 9.285156 10.011719 C 9.429688 9.957031 9.496094 9.796875 9.4375 9.65625 C 9.375 9.515625 9.210938 9.453125 9.066406 9.507812 C 8.699219 9.660156 8.308594 9.734375 7.910156 9.734375 C 7.132812 9.734375 6.425781 9.449219 5.890625 8.980469 L 7.789062 7.152344 C 7.898438 7.046875 7.898438 6.871094 7.789062 6.765625 C 7.679688 6.65625 7.5 6.65625 7.386719 6.765625 L 5.507812 8.578125 C 5.246094 8.246094 5.058594 7.859375 4.96875 7.4375 L 9.464844 3.109375 C 9.816406 3.316406 10.117188 3.585938 10.355469 3.90625 L 8.46875 5.726562 C 8.355469 5.832031 8.355469 6.003906 8.46875 6.113281 C 8.523438 6.164062 8.59375 6.191406 8.667969 6.191406 C 8.742188 6.191406 8.8125 6.164062 8.867188 6.113281 L 10.648438 4.398438 C 10.820312 4.757812 10.917969 5.164062 10.917969 5.589844 L 10.917969 6.835938 C 10.917969 7.222656 10.839844 7.597656 10.683594 7.949219 C 10.625 8.089844 10.691406 8.25 10.835938 8.308594 C 10.980469 8.367188 11.148438 8.300781 11.207031 8.160156 C 11.390625 7.742188 11.484375 7.296875 11.484375 6.835938 L 11.484375 5.589844 C 11.484375 3.691406 9.878906 2.148438 7.910156 2.148438 Z M 4.902344 6.726562 L 4.902344 5.589844 C 4.902344 3.992188 6.25 2.691406 7.910156 2.691406 C 8.265625 2.691406 8.601562 2.753906 8.917969 2.859375 Z M 4.902344 6.726562 "/>
        <path style=" stroke:none;fill-rule:nonzero;fill:rgb(0%,0%,0%);fill-opacity:1;"
              d="M 12.730469 5.589844 C 12.730469 3.027344 10.570312 0.945312 7.910156 0.945312 C 5.25 0.945312 3.085938 3.027344 3.085938 5.589844 L 3.085938 6.835938 C 3.085938 8.792969 4.371094 10.546875 6.28125 11.207031 C 6.46875 11.273438 6.585938 11.457031 6.550781 11.644531 L 6.308594 13.128906 C 6.234375 13.582031 6.371094 14.039062 6.675781 14.386719 C 6.984375 14.730469 7.433594 14.929688 7.90625 14.929688 C 8.378906 14.929688 8.828125 14.730469 9.136719 14.386719 C 9.441406 14.039062 9.578125 13.582031 9.503906 13.128906 L 9.261719 11.644531 C 9.230469 11.460938 9.34375 11.277344 9.535156 11.210938 C 11.445312 10.550781 12.730469 8.792969 12.730469 6.835938 Z M 12.164062 6.835938 C 12.164062 8.5625 11.03125 10.113281 9.34375 10.695312 C 8.898438 10.847656 8.625 11.285156 8.699219 11.730469 L 8.941406 13.214844 C 8.992188 13.507812 8.902344 13.804688 8.703125 14.03125 C 8.503906 14.253906 8.214844 14.382812 7.90625 14.382812 C 7.597656 14.382812 7.308594 14.253906 7.109375 14.03125 C 6.910156 13.804688 6.820312 13.507812 6.871094 13.214844 L 7.113281 11.730469 C 7.1875 11.285156 6.917969 10.847656 6.472656 10.695312 C 4.789062 10.113281 3.65625 8.5625 3.65625 6.835938 L 3.65625 5.589844 C 3.65625 3.328125 5.566406 1.492188 7.910156 1.492188 C 10.257812 1.492188 12.164062 3.328125 12.164062 5.589844 Z M 12.164062 6.835938 "/>
        <path style=" stroke:none;fill-rule:nonzero;fill:rgb(0%,0%,0%);fill-opacity:1;"
              d="M 7.90625 13.085938 C 7.832031 13.085938 7.757812 13.113281 7.707031 13.167969 C 7.652344 13.214844 7.621094 13.289062 7.621094 13.359375 C 7.621094 13.429688 7.652344 13.503906 7.707031 13.550781 C 7.757812 13.605469 7.832031 13.632812 7.90625 13.632812 C 7.980469 13.632812 8.054688 13.605469 8.105469 13.550781 C 8.160156 13.503906 8.191406 13.429688 8.191406 13.359375 C 8.191406 13.289062 8.160156 13.214844 8.105469 13.167969 C 8.054688 13.113281 7.980469 13.085938 7.90625 13.085938 Z M 7.90625 13.085938 "/>
        <path style=" stroke:none;fill-rule:nonzero;fill:rgb(0%,0%,0%);fill-opacity:1;"
              d="M 13.875 10.167969 C 13.742188 10.167969 13.636719 10.066406 13.636719 9.941406 C 13.636719 9.789062 13.507812 9.667969 13.351562 9.667969 C 13.195312 9.667969 13.070312 9.789062 13.070312 9.941406 C 13.070312 10.066406 12.960938 10.167969 12.832031 10.167969 C 12.675781 10.167969 12.546875 10.292969 12.546875 10.441406 C 12.546875 10.59375 12.675781 10.714844 12.832031 10.714844 C 12.960938 10.714844 13.070312 10.820312 13.070312 10.945312 C 13.070312 11.097656 13.195312 11.21875 13.351562 11.21875 C 13.507812 11.21875 13.636719 11.097656 13.636719 10.945312 C 13.636719 10.820312 13.742188 10.714844 13.875 10.714844 C 14.03125 10.714844 14.15625 10.59375 14.15625 10.441406 C 14.15625 10.292969 14.03125 10.167969 13.875 10.167969 Z M 13.875 10.167969 "/>
        <path style=" stroke:none;fill-rule:nonzero;fill:rgb(0%,0%,0%);fill-opacity:1;"
              d="M 3.265625 1.71875 C 3.265625 1.570312 3.136719 1.445312 2.980469 1.445312 C 2.851562 1.445312 2.742188 1.34375 2.742188 1.21875 C 2.742188 1.066406 2.617188 0.945312 2.460938 0.945312 C 2.304688 0.945312 2.175781 1.066406 2.175781 1.21875 C 2.175781 1.34375 2.070312 1.445312 1.9375 1.445312 C 1.78125 1.445312 1.65625 1.570312 1.65625 1.71875 C 1.65625 1.871094 1.78125 1.992188 1.9375 1.992188 C 2.070312 1.992188 2.175781 2.097656 2.175781 2.222656 C 2.175781 2.371094 2.304688 2.496094 2.460938 2.496094 C 2.617188 2.496094 2.742188 2.371094 2.742188 2.222656 C 2.742188 2.097656 2.851562 1.992188 2.980469 1.992188 C 3.136719 1.992188 3.265625 1.871094 3.265625 1.71875 Z M 3.265625 1.71875 "/>
        <path style=" stroke:none;fill-rule:nonzero;fill:rgb(69.803922%,89.803922%,61.176471%);fill-opacity:1;"
              d="M 14.03125 6.25 L 8.15625 6.25 C 7.378906 6.25 6.75 6.878906 6.75 7.65625 L 6.75 13.53125 C 6.75 14.308594 7.378906 14.9375 8.15625 14.9375 L 14.03125 14.9375 C 14.808594 14.9375 15.4375 14.308594 15.4375 13.53125 L 15.4375 7.65625 C 15.4375 6.878906 14.808594 6.25 14.03125 6.25 Z M 14.03125 6.25 "/>
        <path style=" stroke:none;fill-rule:nonzero;fill:rgb(60.392157%,84.705882%,50.196078%);fill-opacity:1;"
              d="M 11.613281 6.25 L 8.15625 6.25 C 7.378906 6.25 6.75 6.878906 6.75 7.65625 L 6.75 13.53125 C 6.75 14.308594 7.378906 14.9375 8.15625 14.9375 L 9.96875 14.9375 C 8.542969 13.226562 9.078125 10.066406 10.15625 8.832031 C 11.199219 7.640625 11.515625 6.6875 11.613281 6.25 Z M 11.613281 6.25 "/>
        <path style=" stroke:none;fill-rule:nonzero;fill:rgb(100%,100%,100%);fill-opacity:1;"
              d="M 10.710938 12.738281 C 10.53125 12.738281 10.359375 12.667969 10.230469 12.546875 L 8.398438 10.8125 C 8.117188 10.546875 8.105469 10.105469 8.371094 9.824219 C 8.636719 9.542969 9.082031 9.53125 9.359375 9.796875 L 10.671875 11.035156 L 12.785156 8.683594 C 13.046875 8.394531 13.488281 8.371094 13.773438 8.628906 C 14.0625 8.886719 14.085938 9.332031 13.828125 9.617188 L 11.230469 12.503906 C 11.105469 12.644531 10.929688 12.730469 10.738281 12.734375 C 10.730469 12.738281 10.722656 12.738281 10.710938 12.738281 Z M 10.710938 12.738281 "/>
        <path style=" stroke:none;fill-rule:nonzero;fill:rgb(80%,97.254902%,100%);fill-opacity:1;"
              d="M 9.359375 9.796875 C 9.082031 9.53125 8.636719 9.542969 8.371094 9.824219 C 8.105469 10.105469 8.117188 10.546875 8.398438 10.8125 L 9.140625 11.515625 C 9.203125 10.957031 9.335938 10.417969 9.519531 9.945312 Z M 9.359375 9.796875 "/>
        <path style=" stroke:none;fill-rule:nonzero;fill:rgb(0%,0%,0%);fill-opacity:1;"
              d="M 15.4375 12.746094 C 15.511719 12.746094 15.570312 12.6875 15.570312 12.613281 L 15.570312 7.65625 C 15.570312 6.808594 14.878906 6.117188 14.03125 6.117188 L 8.15625 6.117188 C 7.308594 6.117188 6.617188 6.808594 6.617188 7.65625 L 6.617188 13.53125 C 6.617188 14.378906 7.308594 15.070312 8.15625 15.070312 L 14.03125 15.070312 C 14.878906 15.070312 15.570312 14.378906 15.570312 13.53125 L 15.570312 13.171875 C 15.570312 13.101562 15.511719 13.042969 15.4375 13.042969 C 15.367188 13.042969 15.308594 13.101562 15.308594 13.171875 L 15.308594 13.53125 C 15.308594 14.234375 14.734375 14.808594 14.03125 14.808594 L 8.15625 14.808594 C 7.453125 14.808594 6.878906 14.234375 6.878906 13.53125 L 6.878906 7.65625 C 6.878906 6.953125 7.453125 6.378906 8.15625 6.378906 L 14.03125 6.378906 C 14.734375 6.378906 15.308594 6.953125 15.308594 7.65625 L 15.308594 12.613281 C 15.308594 12.6875 15.367188 12.746094 15.4375 12.746094 Z M 15.4375 12.746094 "/>
        <path style=" stroke:none;fill-rule:nonzero;fill:rgb(0%,0%,0%);fill-opacity:1;"
              d="M 9.269531 9.890625 L 9.640625 10.242188 C 9.691406 10.289062 9.777344 10.289062 9.824219 10.234375 C 9.875 10.183594 9.871094 10.101562 9.820312 10.050781 L 9.453125 9.699219 C 9.117188 9.386719 8.59375 9.402344 8.277344 9.734375 C 7.960938 10.066406 7.976562 10.59375 8.308594 10.90625 L 10.140625 12.640625 C 10.296875 12.789062 10.492188 12.867188 10.746094 12.867188 C 10.96875 12.867188 11.179688 12.757812 11.328125 12.59375 L 13.925781 9.707031 C 14.230469 9.363281 14.203125 8.839844 13.863281 8.53125 C 13.523438 8.226562 12.996094 8.253906 12.691406 8.59375 L 10.664062 10.847656 L 10.234375 10.441406 C 10.179688 10.390625 10.097656 10.394531 10.046875 10.445312 C 9.996094 10.5 10 10.582031 10.050781 10.632812 L 10.582031 11.132812 C 10.632812 11.175781 10.710938 11.183594 10.769531 11.125 L 12.882812 8.769531 C 13.09375 8.539062 13.453125 8.519531 13.6875 8.726562 C 13.921875 8.9375 13.9375 9.296875 13.730469 9.53125 L 11.132812 12.417969 C 11.03125 12.53125 10.886719 12.597656 10.734375 12.605469 C 10.582031 12.613281 10.433594 12.554688 10.320312 12.449219 L 8.488281 10.714844 C 8.261719 10.5 8.253906 10.140625 8.46875 9.914062 C 8.683594 9.6875 9.042969 9.675781 9.269531 9.890625 Z M 9.269531 9.890625 "/>
    </g>
</svg>
