<?xml version="1.0" encoding="UTF-8"?>
<svg xmlns="http://www.w3.org/2000/svg" width="16pt" height="16pt" viewBox="0 0 16 16" version="1.1">
    <g id="surface1">
        <path style=" stroke:none;fill-rule:nonzero;fill:rgb(100%,49.019608%,59.215686%);fill-opacity:1;"
              d="M 8.136719 1.335938 C 5.652344 1.335938 3.636719 3.277344 3.636719 5.671875 L 3.636719 6.910156 C 3.636719 8.789062 4.878906 10.386719 6.617188 10.988281 C 6.929688 11.097656 7.121094 11.402344 7.070312 11.71875 L 6.828125 13.191406 C 6.699219 13.964844 7.320312 14.664062 8.132812 14.664062 C 8.945312 14.664062 9.566406 13.964844 9.441406 13.191406 L 9.199219 11.71875 C 9.144531 11.402344 9.339844 11.097656 9.652344 10.988281 C 11.390625 10.390625 12.636719 8.789062 12.636719 6.910156 L 12.636719 5.671875 C 12.636719 3.277344 10.621094 1.335938 8.136719 1.335938 Z M 8.136719 1.335938 "/>
        <path style=" stroke:none;fill-rule:nonzero;fill:rgb(87.45098%,92.941176%,100%);fill-opacity:1;"
              d="M 8.136719 2.527344 C 6.339844 2.527344 4.875 3.9375 4.875 5.671875 L 4.875 6.910156 C 4.875 8.640625 6.339844 10.050781 8.136719 10.050781 C 9.9375 10.050781 11.398438 8.640625 11.398438 6.910156 L 11.398438 5.671875 C 11.398438 3.9375 9.9375 2.527344 8.136719 2.527344 Z M 8.136719 2.527344 "/>
        <path style=" stroke:none;fill-rule:nonzero;fill:rgb(0%,0%,0%);fill-opacity:1;"
              d="M 10.441406 8.859375 C 10.367188 8.859375 10.296875 8.886719 10.242188 8.9375 C 10.191406 8.988281 10.160156 9.058594 10.160156 9.128906 C 10.160156 9.199219 10.191406 9.269531 10.242188 9.320312 C 10.296875 9.371094 10.367188 9.402344 10.441406 9.402344 C 10.515625 9.402344 10.589844 9.371094 10.640625 9.320312 C 10.695312 9.269531 10.722656 9.199219 10.722656 9.128906 C 10.722656 9.058594 10.695312 8.988281 10.640625 8.9375 C 10.589844 8.886719 10.515625 8.859375 10.441406 8.859375 Z M 10.441406 8.859375 "/>
        <path style=" stroke:none;fill-rule:nonzero;fill:rgb(0%,0%,0%);fill-opacity:1;"
              d="M 8.136719 2.257812 C 6.183594 2.257812 4.59375 3.789062 4.59375 5.671875 L 4.59375 6.910156 C 4.59375 8.789062 6.183594 10.320312 8.136719 10.320312 C 8.609375 10.320312 9.066406 10.234375 9.5 10.058594 C 9.644531 10 9.710938 9.84375 9.652344 9.703125 C 9.589844 9.566406 9.425781 9.5 9.285156 9.558594 C 8.917969 9.707031 8.535156 9.78125 8.136719 9.78125 C 7.367188 9.78125 6.664062 9.496094 6.136719 9.035156 L 8.019531 7.21875 C 8.128906 7.117188 8.128906 6.945312 8.019531 6.835938 C 7.910156 6.730469 7.730469 6.730469 7.621094 6.835938 L 5.753906 8.632812 C 5.496094 8.304688 5.3125 7.921875 5.222656 7.503906 L 9.675781 3.214844 C 10.027344 3.417969 10.328125 3.6875 10.5625 4.003906 L 8.691406 5.808594 C 8.582031 5.914062 8.582031 6.085938 8.691406 6.191406 C 8.746094 6.242188 8.816406 6.269531 8.886719 6.269531 C 8.960938 6.269531 9.035156 6.242188 9.089844 6.191406 L 10.855469 4.488281 C 11.023438 4.847656 11.117188 5.25 11.117188 5.671875 L 11.117188 6.910156 C 11.117188 7.292969 11.042969 7.664062 10.886719 8.011719 C 10.828125 8.152344 10.894531 8.308594 11.039062 8.367188 C 11.183594 8.425781 11.347656 8.359375 11.40625 8.222656 C 11.589844 7.804688 11.679688 7.363281 11.679688 6.910156 L 11.679688 5.671875 C 11.679688 3.789062 10.089844 2.257812 8.136719 2.257812 Z M 5.15625 6.800781 L 5.15625 5.671875 C 5.15625 4.089844 6.492188 2.800781 8.136719 2.800781 C 8.488281 2.800781 8.824219 2.859375 9.136719 2.96875 Z M 5.15625 6.800781 "/>
        <path style=" stroke:none;fill-rule:nonzero;fill:rgb(0%,0%,0%);fill-opacity:1;"
              d="M 12.917969 5.671875 C 12.917969 3.132812 10.773438 1.066406 8.136719 1.066406 C 5.5 1.066406 3.355469 3.132812 3.355469 5.671875 L 3.355469 6.910156 C 3.355469 8.847656 4.628906 10.589844 6.519531 11.242188 C 6.707031 11.308594 6.824219 11.488281 6.792969 11.675781 L 6.550781 13.148438 C 6.476562 13.597656 6.609375 14.046875 6.914062 14.394531 C 7.21875 14.734375 7.664062 14.933594 8.132812 14.933594 C 8.601562 14.933594 9.046875 14.734375 9.351562 14.394531 C 9.65625 14.046875 9.789062 13.597656 9.714844 13.148438 L 9.476562 11.675781 C 9.445312 11.492188 9.558594 11.308594 9.746094 11.246094 C 11.644531 10.59375 12.917969 8.851562 12.917969 6.910156 Z M 12.355469 6.910156 C 12.355469 8.621094 11.230469 10.160156 9.558594 10.734375 C 9.117188 10.886719 8.847656 11.320312 8.917969 11.761719 L 9.160156 13.234375 C 9.207031 13.523438 9.121094 13.816406 8.925781 14.042969 C 8.726562 14.265625 8.4375 14.390625 8.132812 14.390625 C 7.828125 14.390625 7.539062 14.265625 7.34375 14.042969 C 7.144531 13.816406 7.058594 13.523438 7.105469 13.234375 L 7.347656 11.761719 C 7.417969 11.316406 7.152344 10.886719 6.710938 10.734375 C 5.042969 10.15625 3.917969 8.617188 3.917969 6.910156 L 3.917969 5.671875 C 3.917969 3.429688 5.8125 1.609375 8.136719 1.609375 C 10.464844 1.609375 12.355469 3.429688 12.355469 5.671875 Z M 12.355469 6.910156 "/>
        <path style=" stroke:none;fill-rule:nonzero;fill:rgb(0%,0%,0%);fill-opacity:1;"
              d="M 8.132812 13.105469 C 8.058594 13.105469 7.988281 13.132812 7.933594 13.183594 C 7.882812 13.234375 7.851562 13.304688 7.851562 13.375 C 7.851562 13.445312 7.882812 13.515625 7.933594 13.566406 C 7.988281 13.617188 8.058594 13.648438 8.132812 13.648438 C 8.207031 13.648438 8.28125 13.617188 8.332031 13.566406 C 8.386719 13.515625 8.414062 13.445312 8.414062 13.375 C 8.414062 13.304688 8.386719 13.234375 8.332031 13.183594 C 8.28125 13.132812 8.207031 13.105469 8.132812 13.105469 Z M 8.132812 13.105469 "/>
        <path style=" stroke:none;fill-rule:nonzero;fill:rgb(0%,0%,0%);fill-opacity:1;"
              d="M 14.050781 10.214844 C 13.921875 10.214844 13.816406 10.109375 13.816406 9.984375 C 13.816406 9.835938 13.6875 9.714844 13.535156 9.714844 C 13.378906 9.714844 13.253906 9.835938 13.253906 9.984375 C 13.253906 10.109375 13.144531 10.214844 13.015625 10.214844 C 12.863281 10.214844 12.734375 10.335938 12.734375 10.484375 C 12.734375 10.632812 12.863281 10.753906 13.015625 10.753906 C 13.144531 10.753906 13.253906 10.855469 13.253906 10.980469 C 13.253906 11.132812 13.378906 11.253906 13.535156 11.253906 C 13.6875 11.253906 13.816406 11.132812 13.816406 10.980469 C 13.816406 10.855469 13.921875 10.753906 14.050781 10.753906 C 14.207031 10.753906 14.332031 10.632812 14.332031 10.484375 C 14.332031 10.335938 14.207031 10.214844 14.050781 10.214844 Z M 14.050781 10.214844 "/>
        <path style=" stroke:none;fill-rule:nonzero;fill:rgb(0%,0%,0%);fill-opacity:1;"
              d="M 3.53125 1.835938 C 3.53125 1.6875 3.40625 1.566406 3.25 1.566406 C 3.121094 1.566406 3.015625 1.460938 3.015625 1.335938 C 3.015625 1.1875 2.886719 1.066406 2.734375 1.066406 C 2.578125 1.066406 2.453125 1.1875 2.453125 1.335938 C 2.453125 1.460938 2.347656 1.566406 2.214844 1.566406 C 2.0625 1.566406 1.933594 1.6875 1.933594 1.835938 C 1.933594 1.984375 2.0625 2.105469 2.214844 2.105469 C 2.347656 2.105469 2.453125 2.207031 2.453125 2.332031 C 2.453125 2.484375 2.578125 2.605469 2.734375 2.605469 C 2.886719 2.605469 3.015625 2.484375 3.015625 2.332031 C 3.015625 2.207031 3.121094 2.105469 3.25 2.105469 C 3.40625 2.105469 3.53125 1.984375 3.53125 1.835938 Z M 3.53125 1.835938 "/>
    </g>
</svg>
