<?xml version="1.0" encoding="UTF-8"?>
<svg xmlns="http://www.w3.org/2000/svg" width="16pt" height="16pt" viewBox="0 0 16 16" version="1.1">
    <g id="surface1">
        <path style=" stroke:none;fill-rule:nonzero;fill:rgb(100%,49.019608%,59.215686%);fill-opacity:1;"
              d="M 7.910156 1.21875 C 5.402344 1.21875 3.371094 3.175781 3.371094 5.589844 L 3.371094 6.835938 C 3.371094 8.734375 4.625 10.34375 6.375 10.949219 C 6.691406 11.058594 6.886719 11.367188 6.832031 11.6875 L 6.589844 13.171875 C 6.460938 13.953125 7.085938 14.65625 7.90625 14.65625 C 8.726562 14.65625 9.351562 13.953125 9.222656 13.171875 L 8.980469 11.6875 C 8.925781 11.367188 9.121094 11.0625 9.4375 10.953125 C 11.191406 10.347656 12.449219 8.734375 12.449219 6.835938 L 12.449219 5.589844 C 12.449219 3.175781 10.417969 1.21875 7.910156 1.21875 Z M 7.910156 1.21875 "/>
        <path style=" stroke:none;fill-rule:nonzero;fill:rgb(87.45098%,92.941176%,100%);fill-opacity:1;"
              d="M 7.910156 2.417969 C 6.09375 2.417969 4.617188 3.839844 4.617188 5.589844 L 4.617188 6.835938 C 4.617188 8.582031 6.09375 10.003906 7.910156 10.003906 C 9.726562 10.003906 11.199219 8.582031 11.199219 6.835938 L 11.199219 5.589844 C 11.199219 3.839844 9.726562 2.417969 7.910156 2.417969 Z M 7.910156 2.417969 "/>
        <path style=" stroke:none;fill-rule:nonzero;fill:rgb(0%,0%,0%);fill-opacity:1;"
              d="M 10.234375 8.804688 C 10.160156 8.804688 10.085938 8.832031 10.035156 8.882812 C 9.980469 8.933594 9.953125 9.003906 9.953125 9.078125 C 9.953125 9.148438 9.980469 9.21875 10.035156 9.269531 C 10.085938 9.320312 10.160156 9.351562 10.234375 9.351562 C 10.308594 9.351562 10.382812 9.320312 10.433594 9.269531 C 10.488281 9.21875 10.519531 9.148438 10.519531 9.078125 C 10.519531 9.003906 10.488281 8.933594 10.433594 8.882812 C 10.382812 8.832031 10.308594 8.804688 10.234375 8.804688 Z M 10.234375 8.804688 "/>
        <path style=" stroke:none;fill-rule:nonzero;fill:rgb(0%,0%,0%);fill-opacity:1;"
              d="M 7.910156 2.148438 C 5.941406 2.148438 4.335938 3.691406 4.335938 5.589844 L 4.335938 6.835938 C 4.335938 8.734375 5.941406 10.277344 7.910156 10.277344 C 8.386719 10.277344 8.847656 10.1875 9.285156 10.011719 C 9.429688 9.957031 9.496094 9.796875 9.4375 9.65625 C 9.375 9.515625 9.210938 9.453125 9.066406 9.507812 C 8.699219 9.660156 8.308594 9.734375 7.910156 9.734375 C 7.132812 9.734375 6.425781 9.449219 5.890625 8.980469 L 7.789062 7.152344 C 7.898438 7.046875 7.898438 6.871094 7.789062 6.765625 C 7.679688 6.65625 7.5 6.65625 7.386719 6.765625 L 5.507812 8.578125 C 5.246094 8.246094 5.058594 7.859375 4.96875 7.4375 L 9.464844 3.109375 C 9.816406 3.316406 10.117188 3.585938 10.355469 3.90625 L 8.46875 5.726562 C 8.355469 5.832031 8.355469 6.003906 8.46875 6.113281 C 8.523438 6.164062 8.59375 6.191406 8.667969 6.191406 C 8.742188 6.191406 8.8125 6.164062 8.867188 6.113281 L 10.648438 4.398438 C 10.820312 4.757812 10.917969 5.164062 10.917969 5.589844 L 10.917969 6.835938 C 10.917969 7.222656 10.839844 7.597656 10.683594 7.949219 C 10.625 8.089844 10.691406 8.25 10.835938 8.308594 C 10.980469 8.367188 11.148438 8.300781 11.207031 8.160156 C 11.390625 7.742188 11.484375 7.296875 11.484375 6.835938 L 11.484375 5.589844 C 11.484375 3.691406 9.878906 2.148438 7.910156 2.148438 Z M 4.902344 6.726562 L 4.902344 5.589844 C 4.902344 3.992188 6.25 2.691406 7.910156 2.691406 C 8.265625 2.691406 8.601562 2.753906 8.917969 2.859375 Z M 4.902344 6.726562 "/>
        <path style=" stroke:none;fill-rule:nonzero;fill:rgb(0%,0%,0%);fill-opacity:1;"
              d="M 12.730469 5.589844 C 12.730469 3.027344 10.570312 0.945312 7.910156 0.945312 C 5.25 0.945312 3.085938 3.027344 3.085938 5.589844 L 3.085938 6.835938 C 3.085938 8.792969 4.371094 10.546875 6.28125 11.207031 C 6.46875 11.273438 6.585938 11.457031 6.550781 11.644531 L 6.308594 13.128906 C 6.234375 13.582031 6.371094 14.039062 6.675781 14.386719 C 6.984375 14.730469 7.433594 14.929688 7.90625 14.929688 C 8.378906 14.929688 8.828125 14.730469 9.136719 14.386719 C 9.441406 14.039062 9.578125 13.582031 9.503906 13.128906 L 9.261719 11.644531 C 9.230469 11.460938 9.34375 11.277344 9.535156 11.210938 C 11.445312 10.550781 12.730469 8.792969 12.730469 6.835938 Z M 12.164062 6.835938 C 12.164062 8.5625 11.03125 10.113281 9.34375 10.695312 C 8.898438 10.847656 8.625 11.285156 8.699219 11.730469 L 8.941406 13.214844 C 8.992188 13.507812 8.902344 13.804688 8.703125 14.03125 C 8.503906 14.253906 8.214844 14.382812 7.90625 14.382812 C 7.597656 14.382812 7.308594 14.253906 7.109375 14.03125 C 6.910156 13.804688 6.820312 13.507812 6.871094 13.214844 L 7.113281 11.730469 C 7.1875 11.285156 6.917969 10.847656 6.472656 10.695312 C 4.789062 10.113281 3.65625 8.5625 3.65625 6.835938 L 3.65625 5.589844 C 3.65625 3.328125 5.566406 1.492188 7.910156 1.492188 C 10.257812 1.492188 12.164062 3.328125 12.164062 5.589844 Z M 12.164062 6.835938 "/>
        <path style=" stroke:none;fill-rule:nonzero;fill:rgb(0%,0%,0%);fill-opacity:1;"
              d="M 7.90625 13.085938 C 7.832031 13.085938 7.757812 13.113281 7.707031 13.167969 C 7.652344 13.214844 7.621094 13.289062 7.621094 13.359375 C 7.621094 13.429688 7.652344 13.503906 7.707031 13.550781 C 7.757812 13.605469 7.832031 13.632812 7.90625 13.632812 C 7.980469 13.632812 8.054688 13.605469 8.105469 13.550781 C 8.160156 13.503906 8.191406 13.429688 8.191406 13.359375 C 8.191406 13.289062 8.160156 13.214844 8.105469 13.167969 C 8.054688 13.113281 7.980469 13.085938 7.90625 13.085938 Z M 7.90625 13.085938 "/>
        <path style=" stroke:none;fill-rule:nonzero;fill:rgb(0%,0%,0%);fill-opacity:1;"
              d="M 13.875 10.167969 C 13.742188 10.167969 13.636719 10.066406 13.636719 9.941406 C 13.636719 9.789062 13.507812 9.667969 13.351562 9.667969 C 13.195312 9.667969 13.070312 9.789062 13.070312 9.941406 C 13.070312 10.066406 12.960938 10.167969 12.832031 10.167969 C 12.675781 10.167969 12.546875 10.292969 12.546875 10.441406 C 12.546875 10.59375 12.675781 10.714844 12.832031 10.714844 C 12.960938 10.714844 13.070312 10.820312 13.070312 10.945312 C 13.070312 11.097656 13.195312 11.21875 13.351562 11.21875 C 13.507812 11.21875 13.636719 11.097656 13.636719 10.945312 C 13.636719 10.820312 13.742188 10.714844 13.875 10.714844 C 14.03125 10.714844 14.15625 10.59375 14.15625 10.441406 C 14.15625 10.292969 14.03125 10.167969 13.875 10.167969 Z M 13.875 10.167969 "/>
        <path style=" stroke:none;fill-rule:nonzero;fill:rgb(0%,0%,0%);fill-opacity:1;"
              d="M 3.265625 1.71875 C 3.265625 1.570312 3.136719 1.445312 2.980469 1.445312 C 2.851562 1.445312 2.742188 1.34375 2.742188 1.21875 C 2.742188 1.066406 2.617188 0.945312 2.460938 0.945312 C 2.304688 0.945312 2.175781 1.066406 2.175781 1.21875 C 2.175781 1.34375 2.070312 1.445312 1.9375 1.445312 C 1.78125 1.445312 1.65625 1.570312 1.65625 1.71875 C 1.65625 1.871094 1.78125 1.992188 1.9375 1.992188 C 2.070312 1.992188 2.175781 2.097656 2.175781 2.222656 C 2.175781 2.371094 2.304688 2.496094 2.460938 2.496094 C 2.617188 2.496094 2.742188 2.371094 2.742188 2.222656 C 2.742188 2.097656 2.851562 1.992188 2.980469 1.992188 C 3.136719 1.992188 3.265625 1.871094 3.265625 1.71875 Z M 3.265625 1.71875 "/>
        <path style=" stroke:none;fill-rule:nonzero;fill:rgb(67.058824%,92.156863%,95.686275%);fill-opacity:1;"
              d="M 15.324219 9.636719 C 15.476562 11.074219 14.960938 12.484375 13.9375 13.507812 C 12.066406 15.378906 9.019531 15.378906 7.148438 13.507812 C 6.960938 13.320312 6.960938 13.019531 7.148438 12.835938 C 7.332031 12.648438 7.632812 12.648438 7.820312 12.835938 C 9.320312 14.335938 11.765625 14.335938 13.265625 12.835938 C 14.085938 12.015625 14.488281 10.882812 14.375 9.730469 C 14.351562 9.46875 14.542969 9.234375 14.800781 9.210938 C 14.949219 9.195312 15.28125 9.257812 15.324219 9.636719 Z M 15.324219 9.636719 "/>
        <path style=" stroke:none;fill-rule:nonzero;fill:rgb(69.803922%,89.803922%,61.176471%);fill-opacity:1;"
              d="M 5.800781 10.546875 C 5.648438 9.109375 6.164062 7.699219 7.1875 6.679688 C 9.058594 4.804688 12.105469 4.804688 13.976562 6.679688 C 14.164062 6.863281 14.164062 7.164062 13.976562 7.351562 C 13.792969 7.535156 13.492188 7.535156 13.304688 7.351562 C 11.804688 5.847656 9.359375 5.847656 7.859375 7.351562 C 7.039062 8.167969 6.636719 9.300781 6.75 10.453125 C 6.773438 10.714844 6.582031 10.949219 6.324219 10.976562 C 6.175781 10.988281 5.84375 10.925781 5.800781 10.546875 Z M 5.800781 10.546875 "/>
        <path style=" stroke:none;fill-rule:nonzero;fill:rgb(60.392157%,84.705882%,50.196078%);fill-opacity:1;"
              d="M 13.976562 7.351562 C 14.164062 7.164062 14.164062 6.863281 13.976562 6.679688 C 13.167969 5.871094 12.144531 5.410156 11.085938 5.300781 C 11.226562 5.46875 11.328125 5.660156 11.28125 5.832031 C 11.246094 5.972656 11.136719 6.113281 11 6.246094 C 11.84375 6.339844 12.660156 6.707031 13.304688 7.351562 C 13.492188 7.535156 13.792969 7.535156 13.976562 7.351562 Z M 13.976562 7.351562 "/>
        <path style=" stroke:none;fill-rule:nonzero;fill:rgb(55.686275%,84.313725%,90.980392%);fill-opacity:1;"
              d="M 7.148438 12.835938 C 6.960938 13.019531 6.960938 13.320312 7.148438 13.507812 C 7.957031 14.3125 8.980469 14.773438 10.039062 14.882812 C 9.898438 14.714844 9.796875 14.523438 9.84375 14.351562 C 9.878906 14.214844 9.988281 14.070312 10.125 13.9375 C 9.28125 13.847656 8.464844 13.480469 7.820312 12.835938 C 7.636719 12.648438 7.332031 12.648438 7.148438 12.835938 Z M 7.148438 12.835938 "/>
        <path style=" stroke:none;fill-rule:nonzero;fill:rgb(78.431373%,93.72549%,72.54902%);fill-opacity:1;"
              d="M 11.121094 7.148438 C 11.113281 6.886719 11.324219 6.671875 11.585938 6.664062 L 13.078125 6.636719 L 12.625 5.210938 C 12.546875 4.960938 12.683594 4.695312 12.933594 4.613281 C 13.183594 4.535156 13.453125 4.671875 13.53125 4.921875 L 14.175781 6.953125 C 14.222656 7.097656 14.199219 7.253906 14.109375 7.375 C 14.023438 7.496094 13.882812 7.570312 13.734375 7.574219 L 11.605469 7.617188 C 11.238281 7.609375 11.121094 7.277344 11.121094 7.148438 Z M 11.121094 7.148438 "/>
        <path style=" stroke:none;fill-rule:nonzero;fill:rgb(80%,97.254902%,100%);fill-opacity:1;"
              d="M 10.003906 13.035156 C 10.011719 13.296875 9.800781 13.515625 9.539062 13.519531 L 8.046875 13.550781 L 8.5 14.972656 C 8.578125 15.222656 8.441406 15.492188 8.191406 15.570312 C 7.941406 15.648438 7.671875 15.511719 7.59375 15.261719 L 6.949219 13.230469 C 6.902344 13.089844 6.925781 12.933594 7.015625 12.808594 C 7.101562 12.6875 7.242188 12.613281 7.390625 12.613281 L 9.519531 12.570312 C 9.886719 12.574219 10.003906 12.90625 10.003906 13.035156 Z M 10.003906 13.035156 "/>
        <path style=" stroke:none;fill-rule:nonzero;fill:rgb(0%,0%,0%);fill-opacity:1;"
              d="M 15.488281 9.617188 C 15.4375 9.15625 15.03125 9.019531 14.785156 9.042969 C 14.433594 9.078125 14.175781 9.394531 14.210938 9.746094 C 14.320312 10.851562 13.933594 11.933594 13.148438 12.71875 C 12.214844 13.652344 10.867188 14 9.621094 13.679688 C 9.9375 13.632812 10.179688 13.359375 10.171875 13.03125 C 10.167969 12.78125 9.957031 12.410156 9.523438 12.402344 C 9.523438 12.402344 9.519531 12.402344 9.515625 12.402344 L 7.386719 12.445312 C 7.1875 12.449219 6.996094 12.550781 6.878906 12.714844 C 6.761719 12.878906 6.726562 13.089844 6.789062 13.28125 L 7.027344 14.03125 C 7.054688 14.117188 7.148438 14.164062 7.234375 14.136719 C 7.324219 14.109375 7.371094 14.015625 7.34375 13.929688 L 7.105469 13.179688 C 7.078125 13.089844 7.09375 12.984375 7.148438 12.90625 C 7.207031 12.828125 7.296875 12.78125 7.394531 12.777344 L 9.519531 12.734375 C 9.625 12.738281 9.832031 12.8125 9.839844 13.039062 C 9.84375 13.207031 9.707031 13.351562 9.535156 13.355469 L 8.042969 13.382812 C 7.992188 13.382812 7.941406 13.410156 7.910156 13.453125 C 7.882812 13.496094 7.871094 13.550781 7.886719 13.601562 L 8.339844 15.023438 C 8.394531 15.1875 8.300781 15.355469 8.140625 15.410156 C 7.917969 15.488281 7.777344 15.289062 7.75 15.210938 L 7.574219 14.652344 C 7.546875 14.566406 7.453125 14.515625 7.367188 14.542969 C 7.277344 14.570312 7.230469 14.664062 7.257812 14.753906 L 7.433594 15.3125 C 7.488281 15.476562 7.691406 15.757812 8.046875 15.757812 C 8.601562 15.757812 8.765625 15.257812 8.65625 14.921875 L 8.578125 14.671875 C 9.199219 14.9375 9.875 15.078125 10.550781 15.078125 C 10.789062 15.078125 11.023438 15.058594 11.257812 15.027344 C 12.324219 14.871094 13.292969 14.386719 14.054688 13.625 C 15.125 12.558594 15.644531 11.097656 15.488281 9.617188 Z M 13.820312 13.390625 C 13.109375 14.101562 12.207031 14.554688 11.210938 14.699219 C 10.265625 14.832031 9.285156 14.671875 8.441406 14.242188 L 8.273438 13.710938 L 8.722656 13.703125 C 10.269531 14.46875 12.164062 14.171875 13.382812 12.953125 C 14.238281 12.097656 14.660156 10.917969 14.542969 9.714844 C 14.523438 9.542969 14.648438 9.390625 14.820312 9.375 C 14.832031 9.375 15.125 9.347656 15.15625 9.652344 C 15.304688 11.03125 14.816406 12.394531 13.820312 13.390625 Z M 13.820312 13.390625 "/>
        <path style=" stroke:none;fill-rule:nonzero;fill:rgb(0%,0%,0%);fill-opacity:1;"
              d="M 6.914062 10.4375 C 6.804688 9.335938 7.191406 8.25 7.976562 7.46875 C 8.910156 6.53125 10.257812 6.183594 11.503906 6.503906 C 11.1875 6.550781 10.945312 6.828125 10.953125 7.152344 C 10.957031 7.402344 11.167969 7.773438 11.601562 7.78125 L 11.609375 7.78125 L 13.738281 7.738281 C 13.9375 7.734375 14.128906 7.632812 14.246094 7.472656 C 14.363281 7.308594 14.398438 7.09375 14.335938 6.902344 L 13.691406 4.875 C 13.636719 4.710938 13.527344 4.578125 13.375 4.496094 C 13.222656 4.417969 13.046875 4.40625 12.882812 4.457031 C 12.546875 4.5625 12.359375 4.925781 12.46875 5.261719 L 12.546875 5.511719 C 11.929688 5.246094 11.257812 5.109375 10.582031 5.109375 C 10.578125 5.109375 10.402344 5.097656 10.402344 5.273438 C 10.402344 5.453125 10.578125 5.441406 10.582031 5.441406 C 11.3125 5.441406 12.035156 5.613281 12.683594 5.941406 L 12.851562 6.472656 C 12.851562 6.472656 12.359375 6.472656 12.351562 6.464844 C 10.808594 5.710938 8.953125 6.019531 7.742188 7.234375 C 6.886719 8.085938 6.464844 9.265625 6.582031 10.472656 C 6.601562 10.640625 6.476562 10.792969 6.304688 10.808594 C 6.292969 10.8125 6 10.835938 5.96875 10.53125 C 5.820312 9.152344 6.308594 7.789062 7.304688 6.796875 C 8.007812 6.089844 8.902344 5.640625 9.886719 5.492188 C 9.976562 5.476562 10.039062 5.394531 10.023438 5.304688 C 10.011719 5.210938 9.925781 5.148438 9.835938 5.164062 C 8.78125 5.324219 7.824219 5.804688 7.066406 6.558594 C 6 7.628906 5.480469 9.085938 5.636719 10.566406 C 5.683594 10.996094 6.027344 11.175781 6.339844 11.140625 C 6.691406 11.101562 6.949219 10.789062 6.914062 10.4375 Z M 13.082031 6.800781 C 13.132812 6.800781 13.183594 6.773438 13.214844 6.730469 C 13.242188 6.6875 13.253906 6.632812 13.238281 6.585938 L 12.785156 5.160156 C 12.730469 5 12.820312 4.816406 12.984375 4.773438 C 13.222656 4.707031 13.347656 4.894531 13.375 4.972656 L 14.019531 7.003906 C 14.046875 7.097656 14.03125 7.199219 13.976562 7.277344 C 13.917969 7.355469 13.828125 7.40625 13.730469 7.40625 L 11.605469 7.449219 C 11.296875 7.445312 11.285156 7.167969 11.285156 7.148438 C 11.28125 6.976562 11.417969 6.835938 11.589844 6.832031 Z M 13.082031 6.800781 "/>
    </g>
</svg>
